<svg width="82" height="44" viewBox="0 0 82 44" fill="none" xmlns="http://www.w3.org/2000/svg">
<path d="M2.64364 14.9709V37.9819H7.57456V14.9709H12.5055V37.9819H17.4364V14.9709H22.3673V37.9819H27.2982V14.9709M1 10.8618L28.9419 10.8618M1 7.57455C3.19152 5.38304 6.75274 1 14.9709 1C23.1891 1 27.2982 5.38304 28.9419 7.57455" stroke="#C7A950" stroke-width="1.64364" stroke-linecap="round"/>
<circle cx="15.1705" cy="6.45929" r="1.79626" fill="#C7A950"/>
<path d="M38.9657 37.702C37.8271 37.702 36.8224 37.4676 35.9517 36.9987C35.0944 36.5299 34.4247 35.8869 33.9424 35.0698C33.4736 34.2527 33.2392 33.315 33.2392 32.2568C33.2392 31.1985 33.4669 30.2609 33.9223 29.4437C34.3912 28.6266 35.0274 27.9904 35.8312 27.5349C36.6483 27.0661 37.5659 26.8317 38.5839 26.8317C39.6154 26.8317 40.5262 27.0594 41.3166 27.5148C42.1069 27.9703 42.7231 28.6132 43.1651 29.4437C43.6206 30.2609 43.8483 31.2186 43.8483 32.317C43.8483 32.3974 43.8416 32.4912 43.8282 32.5984C43.8282 32.7055 43.8215 32.806 43.8081 32.8997H34.7461V31.5133H42.8034L42.0198 31.9956C42.0332 31.3124 41.8926 30.7029 41.5979 30.1671C41.3032 29.6313 40.8946 29.216 40.3722 28.9213C39.8632 28.6132 39.2671 28.4592 38.5839 28.4592C37.9141 28.4592 37.3181 28.6132 36.7956 28.9213C36.2732 29.216 35.8647 29.638 35.57 30.1872C35.2753 30.723 35.1279 31.3392 35.1279 32.0357V32.3572C35.1279 33.0672 35.2887 33.7035 35.6101 34.2661C35.945 34.8153 36.4072 35.2439 36.9966 35.552C37.586 35.8601 38.2624 36.0142 39.026 36.0142C39.6555 36.0142 40.2248 35.907 40.7339 35.6927C41.2563 35.4784 41.7117 35.1569 42.1002 34.7282L43.1651 35.974C42.6829 36.5366 42.0801 36.9652 41.3568 37.2599C40.6468 37.5546 39.8498 37.702 38.9657 37.702ZM50.9272 37.702C49.8957 37.702 48.9714 37.4743 48.1543 37.0188C47.3506 36.5634 46.7143 35.9271 46.2455 35.11C45.7766 34.2929 45.5422 33.3418 45.5422 32.2568C45.5422 31.1717 45.7766 30.2274 46.2455 29.4237C46.7143 28.6065 47.3506 27.9703 48.1543 27.5148C48.9714 27.0594 49.8957 26.8317 50.9272 26.8317C51.8246 26.8317 52.6351 27.0326 53.3584 27.4344C54.0818 27.8363 54.6578 28.4391 55.0864 29.2428C55.5285 30.0465 55.7495 31.0512 55.7495 32.2568C55.7495 33.4624 55.5352 34.467 55.1065 35.2707C54.6912 36.0744 54.1219 36.6839 53.3986 37.0992C52.6752 37.501 51.8514 37.702 50.9272 37.702ZM51.0879 36.0142C51.7577 36.0142 52.3605 35.8601 52.8963 35.552C53.4455 35.2439 53.8741 34.8086 54.1822 34.246C54.5037 33.67 54.6645 33.0069 54.6645 32.2568C54.6645 31.4932 54.5037 30.8369 54.1822 30.2877C53.8741 29.725 53.4455 29.2897 52.8963 28.9816C52.3605 28.6735 51.7577 28.5195 51.0879 28.5195C50.4047 28.5195 49.7952 28.6735 49.2594 28.9816C48.7236 29.2897 48.295 29.725 47.9735 30.2877C47.652 30.8369 47.4912 31.4932 47.4912 32.2568C47.4912 33.0069 47.652 33.67 47.9735 34.246C48.295 34.8086 48.7236 35.2439 49.2594 35.552C49.7952 35.8601 50.4047 36.0142 51.0879 36.0142ZM54.7247 37.5814V34.7081L54.8453 32.2367L54.6444 29.7652V22.6724H56.5733V37.5814H54.7247ZM64.965 37.702C63.8264 37.702 62.8217 37.4676 61.951 36.9987C61.0937 36.5299 60.4239 35.8869 59.9417 35.0698C59.4729 34.2527 59.2384 33.315 59.2384 32.2568C59.2384 31.1985 59.4662 30.2609 59.9216 29.4437C60.3904 28.6266 61.0267 27.9904 61.8304 27.5349C62.6476 27.0661 63.5651 26.8317 64.5832 26.8317C65.6146 26.8317 66.5255 27.0594 67.3158 27.5148C68.1062 27.9703 68.7224 28.6132 69.1644 29.4437C69.6198 30.2609 69.8476 31.2186 69.8476 32.317C69.8476 32.3974 69.8409 32.4912 69.8275 32.5984C69.8275 32.7055 69.8208 32.806 69.8074 32.8997H60.7454V31.5133H68.8027L68.0191 31.9956C68.0325 31.3124 67.8918 30.7029 67.5971 30.1671C67.3024 29.6313 66.8939 29.216 66.3715 28.9213C65.8624 28.6132 65.2664 28.4592 64.5832 28.4592C63.9134 28.4592 63.3173 28.6132 62.7949 28.9213C62.2725 29.216 61.8639 29.638 61.5692 30.1872C61.2745 30.723 61.1272 31.3392 61.1272 32.0357V32.3572C61.1272 33.0672 61.2879 33.7035 61.6094 34.2661C61.9443 34.8153 62.4064 35.2439 62.9958 35.552C63.5852 35.8601 64.2617 36.0142 65.0252 36.0142C65.6548 36.0142 66.2241 35.907 66.7331 35.6927C67.2556 35.4784 67.711 35.1569 68.0995 34.7282L69.1644 35.974C68.6822 36.5366 68.0794 36.9652 67.356 37.2599C66.6461 37.5546 65.849 37.702 64.965 37.702ZM78.8423 37.5814V35.331L78.7419 34.909V31.0713C78.7419 30.2542 78.5007 29.6246 78.0185 29.1825C77.5497 28.7271 76.8397 28.4994 75.8887 28.4994C75.2591 28.4994 74.6429 28.6065 74.0401 28.8209C73.4373 29.0218 72.9283 29.2964 72.513 29.6447L71.7093 28.198C72.2585 27.7559 72.9149 27.421 73.6784 27.1933C74.4554 26.9522 75.2658 26.8317 76.1097 26.8317C77.5698 26.8317 78.695 27.1866 79.4853 27.8966C80.2756 28.6065 80.6708 29.6916 80.6708 31.1517V37.5814H78.8423ZM75.3461 37.702C74.5558 37.702 73.8593 37.568 73.2565 37.3001C72.6671 37.0322 72.2116 36.6638 71.8901 36.195C71.5687 35.7128 71.4079 35.1703 71.4079 34.5675C71.4079 33.9915 71.5419 33.469 71.8098 33.0002C72.0911 32.5314 72.5398 32.1563 73.156 31.875C73.7856 31.5937 74.6295 31.453 75.6877 31.453H79.0634V32.8395H75.7681C74.8036 32.8395 74.154 33.0002 73.8191 33.3217C73.4842 33.6432 73.3167 34.0317 73.3167 34.4871C73.3167 35.0095 73.5244 35.4315 73.9396 35.753C74.3549 36.061 74.9309 36.2151 75.6676 36.2151C76.391 36.2151 77.0206 36.0544 77.5564 35.7329C78.1056 35.4114 78.5007 34.9425 78.7419 34.3264L79.1236 35.6525C78.8691 36.2821 78.4204 36.7844 77.7774 37.1595C77.1344 37.5211 76.324 37.702 75.3461 37.702Z" fill="#C7A950"/>
</svg>
