<svg width="24" height="24" viewBox="0 0 24 24" fill="none" xmlns="http://www.w3.org/2000/svg">
<path d="M16.0083 11.3443C16.0215 9.70311 14.6674 8.19831 12.9899 7.99041L12.8799 7.97391C12.7958 7.95721 12.7104 7.94764 12.6247 7.94531C12.2804 7.94531 12.1891 8.19391 12.1649 8.34241C12.1511 8.40409 12.1499 8.46788 12.1612 8.53004C12.1726 8.5922 12.1962 8.65146 12.2309 8.70431C12.3453 8.86381 12.5455 8.89131 12.7061 8.91551C12.7534 8.92211 12.7985 8.92761 12.8348 8.93751C14.3429 9.28401 14.8511 9.83071 15.0986 11.374C15.1052 11.4125 15.1074 11.4587 15.1096 11.5082C15.1206 11.6919 15.1437 12.0758 15.5441 12.0758C15.5771 12.0758 15.6123 12.0736 15.6497 12.067C16.0226 12.0087 16.0105 11.6578 16.005 11.4895C16.0022 11.4489 16.0022 11.4081 16.005 11.3674C16.0062 11.3601 16.0069 11.3528 16.0072 11.3454L16.0083 11.3443Z" fill="#C7A950"/>
<path d="M12.5279 7.38763C12.5719 7.39093 12.6159 7.39423 12.65 7.39973C15.125 7.79353 16.2646 9.00353 16.5803 11.5797C16.5858 11.6237 16.5858 11.6765 16.5869 11.7337C16.5902 11.935 16.5968 12.353 17.0324 12.3618H17.0456C17.1054 12.365 17.1652 12.3554 17.221 12.3335C17.2767 12.3117 17.3272 12.2782 17.369 12.2353C17.5043 12.089 17.4955 11.8723 17.4878 11.6963C17.4856 11.6545 17.4834 11.6138 17.4845 11.5786C17.5153 8.94413 15.3065 6.55493 12.7567 6.46693L12.7259 6.46803C12.716 6.46948 12.7061 6.47021 12.6962 6.47023C12.6709 6.47023 12.639 6.46803 12.606 6.46583C12.5621 6.46182 12.518 6.45962 12.474 6.45923C12.0681 6.45923 11.9911 6.75623 11.9812 6.93443C11.9592 7.34473 12.3431 7.37443 12.5279 7.38763ZM16.4604 14.9083C16.4074 14.8668 16.355 14.8247 16.3031 14.7818C16.0325 14.5574 15.7443 14.3506 15.4671 14.1504C15.4091 14.1087 15.3511 14.0669 15.2933 14.025C14.9369 13.7676 14.6168 13.6411 14.3143 13.6411C13.9073 13.6411 13.552 13.8743 13.2583 14.333C13.1285 14.5354 12.9701 14.6344 12.7765 14.6344C12.6413 14.6296 12.5088 14.5955 12.3882 14.5343C11.2387 13.9953 10.417 13.1703 9.94727 12.0813C9.72067 11.5533 9.79327 11.2101 10.1937 10.9296C10.4203 10.7712 10.8427 10.4753 10.813 9.90883C10.78 9.26533 9.40387 7.32933 8.82417 7.10933C8.57688 7.016 8.30419 7.01522 8.05637 7.10713C7.39087 7.33813 6.91237 7.74513 6.67367 8.28083C6.44267 8.80003 6.45367 9.40833 6.70447 10.0419C7.42717 11.8745 8.44247 13.4717 9.72507 14.7895C10.9791 16.0798 12.5213 17.1358 14.3077 17.93C14.4683 18.0015 14.6377 18.04 14.7609 18.0686L14.8654 18.095C14.8797 18.0991 14.8945 18.1014 14.9094 18.1016H14.9237C15.7641 18.1016 16.7728 17.3096 17.083 16.4054C17.3547 15.6134 16.8586 15.2229 16.4604 14.9094V14.9083ZM12.8997 9.48093C12.7567 9.48423 12.4564 9.49193 12.3508 9.80653C12.3024 9.95393 12.3079 10.0815 12.3684 10.186C12.4575 10.34 12.6291 10.3873 12.7842 10.4126C13.3474 10.5061 13.6378 10.8284 13.695 11.4246C13.7225 11.704 13.904 11.8976 14.1372 11.8976C14.1548 11.898 14.1724 11.8973 14.19 11.8954C14.4705 11.8602 14.6058 11.6479 14.5937 11.2629C14.5981 10.8603 14.3946 10.4049 14.0481 10.0419C13.7005 9.67673 13.2814 9.47103 12.8997 9.48093Z" fill="#C7A950"/>
<path d="M5.4 3.2C4.81652 3.2 4.25695 3.43179 3.84437 3.84437C3.43179 4.25695 3.2 4.81652 3.2 5.4V18.6C3.2 19.1835 3.43179 19.7431 3.84437 20.1556C4.25695 20.5682 4.81652 20.8 5.4 20.8H18.6C19.1835 20.8 19.7431 20.5682 20.1556 20.1556C20.5682 19.7431 20.8 19.1835 20.8 18.6V5.4C20.8 4.81652 20.5682 4.25695 20.1556 3.84437C19.7431 3.43179 19.1835 3.2 18.6 3.2H5.4ZM5.4 1H18.6C19.767 1 20.8861 1.46357 21.7113 2.28873C22.5364 3.11389 23 4.23305 23 5.4V18.6C23 19.767 22.5364 20.8861 21.7113 21.7113C20.8861 22.5364 19.767 23 18.6 23H5.4C4.23305 23 3.11389 22.5364 2.28873 21.7113C1.46357 20.8861 1 19.767 1 18.6V5.4C1 4.23305 1.46357 3.11389 2.28873 2.28873C3.11389 1.46357 4.23305 1 5.4 1V1Z" fill="#C7A950"/>
</svg>
