<svg width="24" height="24" viewBox="0 0 24 24" fill="none" xmlns="http://www.w3.org/2000/svg">
<path d="M5.082 1C4.00068 1.00421 2.96486 1.43563 2.20025 2.20025C1.43563 2.96486 1.00421 4.00068 1 5.082V18.918C1.00421 19.9993 1.43563 21.0351 2.20025 21.7998C2.96486 22.5644 4.00068 22.9958 5.082 23H18.918C19.9993 22.9958 21.0351 22.5644 21.7998 21.7998C22.5644 21.0351 22.9958 19.9993 23 18.918V5.082C22.9958 4.00068 22.5644 2.96486 21.7998 2.20025C21.0351 1.43563 19.9993 1.00421 18.918 1H5.082ZM5.082 3H18.918C19.1919 2.99841 19.4633 3.05117 19.7166 3.15524C19.9699 3.25931 20.2001 3.4126 20.3937 3.60625C20.5874 3.7999 20.7407 4.03005 20.8448 4.28337C20.9488 4.53669 21.0016 4.80814 21 5.082V18.918C21.0016 19.1919 20.9488 19.4633 20.8448 19.7166C20.7407 19.9699 20.5874 20.2001 20.3937 20.3937C20.2001 20.5874 19.9699 20.7407 19.7166 20.8448C19.4633 20.9488 19.1919 21.0016 18.918 21H5.082C4.80811 21.0017 4.53659 20.9491 4.28321 20.845C4.02984 20.741 3.79963 20.5877 3.60596 20.394C3.41228 20.2004 3.25899 19.9702 3.15497 19.7168C3.05095 19.4634 2.99827 19.1919 3 18.918V5.082C2.99841 4.80814 3.05117 4.53669 3.15524 4.28337C3.25931 4.03005 3.4126 3.7999 3.60625 3.60625C3.7999 3.4126 4.03005 3.25931 4.28337 3.15524C4.53669 3.05117 4.80814 2.99841 5.082 3ZM11.719 8.23C10.984 8.223 10.359 8.23 10.008 8.402C9.773 8.516 9.594 8.773 9.703 8.785C9.84 8.805 10.148 8.871 10.313 9.094C10.523 9.379 10.516 10.024 10.516 10.024C10.516 10.024 10.633 11.797 10.23 12.02C9.953 12.172 9.574 11.863 8.754 10.453C8.336 9.727 8.02 8.926 8.02 8.926C8.02 8.926 7.96 8.777 7.852 8.699C7.719 8.602 7.535 8.57 7.535 8.57L5.578 8.582C5.578 8.582 5.285 8.594 5.18 8.719C5.082 8.836 5.172 9.066 5.172 9.066C5.172 9.066 6.703 12.648 8.437 14.453C10.027 16.11 11.832 16 11.832 16H12.652C12.652 16 12.898 15.973 13.023 15.84C13.141 15.715 13.137 15.48 13.137 15.48C13.137 15.48 13.121 14.383 13.629 14.219C14.133 14.062 14.773 15.281 15.457 15.75C15.977 16.105 16.371 16.027 16.371 16.027L18.2 16C18.2 16 19.153 15.941 18.7 15.187C18.665 15.129 18.438 14.633 17.345 13.617C16.196 12.555 16.349 12.727 17.731 10.887C18.571 9.766 18.907 9.082 18.801 8.785C18.701 8.508 18.083 8.582 18.083 8.582L16.024 8.594C16.024 8.594 15.872 8.574 15.759 8.641C15.6813 8.6987 15.6194 8.77505 15.579 8.863C15.579 8.863 15.251 9.73 14.817 10.469C13.903 12.023 13.532 12.109 13.384 12.012C13.036 11.785 13.122 11.105 13.122 10.625C13.122 9.113 13.352 8.488 12.677 8.325C12.454 8.27 12.29 8.235 11.72 8.23H11.719Z" fill="#C7A950"/>
</svg>
