<svg width="24" height="24" viewBox="0 0 24 24" fill="none" xmlns="http://www.w3.org/2000/svg">
<path d="M22.5413 2.38952C22.3148 2.19758 22.0405 2.07061 21.7476 2.02209C21.4547 1.97357 21.1541 2.00532 20.8778 2.11397L2.03839 9.51298C1.70795 9.63887 1.42806 9.8699 1.2418 10.1705C1.05555 10.4711 0.973272 10.8245 1.00763 11.1765C1.03829 11.5283 1.18216 11.8607 1.41768 12.1238C1.6532 12.3869 1.96767 12.5666 2.31394 12.6359L7.10033 13.585V19.5654C7.10016 19.889 7.1961 20.2052 7.37599 20.4742C7.55587 20.7431 7.81158 20.9525 8.11068 21.0758C8.30863 21.1555 8.51984 21.1971 8.73321 21.1983C8.94768 21.1991 9.16014 21.157 9.35816 21.0747C9.55617 20.9923 9.73577 20.8713 9.88644 20.7186L12.5399 18.0754L16.5506 21.6065C16.8467 21.8677 17.2274 22.0127 17.6222 22.0147C17.7958 22.0183 17.9687 21.9907 18.1325 21.9331C18.4018 21.8479 18.6442 21.6939 18.8357 21.4862C19.0273 21.2786 19.1613 21.0246 19.2245 20.7493L23.0618 3.99179C23.1288 3.70263 23.1158 3.40066 23.0241 3.11835C22.9324 2.83604 22.7655 2.58406 22.5413 2.38952ZM7.72287 12.044L2.64052 11.0336L16.8874 5.43077L7.72287 12.044ZM8.73321 19.5654V14.728L11.305 16.9936L8.73321 19.5654ZM17.6324 20.3819L9.22308 12.9829L21.337 4.23672L17.6324 20.3819Z" fill="#C7A950"/>
</svg>
